<svg width="566" height="140" viewBox="0 0 566 140" fill="none" xmlns="http://www.w3.org/2000/svg">
<path fill-rule="evenodd" clip-rule="evenodd" d="M565.274 2.32902C565.274 2.74917 565.149 3.15985 564.916 3.50915C564.682 3.85845 564.35 4.13068 563.962 4.2914C563.573 4.45212 563.146 4.49412 562.734 4.4121C562.322 4.33008 561.943 4.12772 561.646 3.8306C561.348 3.53347 561.146 3.15492 561.064 2.74284C560.982 2.33075 561.024 1.90364 561.185 1.51548C561.346 1.12731 561.618 0.795545 561.968 0.562129C562.317 0.328713 562.728 0.204102 563.149 0.204102C563.428 0.20406 563.704 0.259024 563.962 0.3658C564.22 0.472577 564.455 0.629101 564.652 0.82643C564.849 1.02376 565.006 1.25801 565.113 1.51583C565.219 1.77365 565.274 2.04998 565.274 2.32902V2.32902Z" fill="#68B7E7"/>
<path fill-rule="evenodd" clip-rule="evenodd" d="M549.65 137.603C549.65 138.023 549.525 138.434 549.291 138.783C549.058 139.132 548.726 139.405 548.337 139.565C547.949 139.726 547.522 139.768 547.11 139.686C546.697 139.604 546.319 139.402 546.021 139.105C545.724 138.808 545.522 138.429 545.44 138.017C545.358 137.605 545.4 137.178 545.561 136.79C545.722 136.401 545.994 136.07 546.344 135.836C546.693 135.603 547.104 135.478 547.524 135.478C548.088 135.478 548.628 135.702 549.027 136.1C549.426 136.499 549.65 137.039 549.65 137.603V137.603Z" fill="#406FBB"/>
<path fill-rule="evenodd" clip-rule="evenodd" d="M374.311 43.8012C374.311 44.2215 374.187 44.6323 373.953 44.9818C373.72 45.3312 373.388 45.6036 372.999 45.7644C372.611 45.9253 372.184 45.9674 371.771 45.8854C371.359 45.8034 370.98 45.6011 370.683 45.3039C370.386 45.0067 370.183 44.6281 370.101 44.2159C370.019 43.8038 370.061 43.3765 370.222 42.9883C370.383 42.6 370.656 42.2682 371.005 42.0348C371.355 41.8013 371.766 41.6767 372.186 41.6768C372.75 41.6769 373.29 41.9007 373.689 42.2991C374.087 42.6975 374.311 43.2378 374.311 43.8012V43.8012Z" fill="#406FBB"/>
<path fill-rule="evenodd" clip-rule="evenodd" d="M369.662 116.274C369.662 116.695 369.538 117.105 369.304 117.455C369.071 117.804 368.739 118.076 368.35 118.237C367.962 118.398 367.535 118.44 367.123 118.358C366.71 118.276 366.332 118.074 366.034 117.777C365.737 117.48 365.535 117.101 365.453 116.689C365.371 116.277 365.413 115.85 365.574 115.461C365.734 115.073 366.007 114.741 366.356 114.508C366.706 114.274 367.117 114.15 367.537 114.15C368.101 114.15 368.641 114.374 369.04 114.772C369.439 115.171 369.662 115.711 369.662 116.274V116.274Z" fill="#B7FFFF"/>
<path fill-rule="evenodd" clip-rule="evenodd" d="M253.092 123.254C253.092 123.675 252.968 124.085 252.734 124.435C252.501 124.784 252.169 125.056 251.78 125.217C251.392 125.378 250.965 125.42 250.552 125.338C250.14 125.256 249.761 125.054 249.464 124.757C249.167 124.459 248.964 124.081 248.882 123.669C248.8 123.257 248.842 122.83 249.003 122.441C249.164 122.053 249.437 121.721 249.786 121.488C250.136 121.254 250.547 121.13 250.967 121.13C251.531 121.13 252.071 121.354 252.47 121.752C252.868 122.151 253.092 122.691 253.092 123.254V123.254Z" fill="#90FFFF"/>
<path fill-rule="evenodd" clip-rule="evenodd" d="M59.6357 83.8594C59.6358 84.2796 59.5112 84.6904 59.2777 85.0398C59.0441 85.3893 58.7122 85.6617 58.3238 85.8225C57.9354 85.9834 57.5081 86.0255 57.0957 85.9435C56.6834 85.8616 56.3048 85.6593 56.0075 85.3621C55.7102 85.065 55.5077 84.6865 55.4256 84.2743C55.3436 83.8622 55.3857 83.4349 55.5465 83.0467C55.7074 82.6584 55.9797 82.3265 56.3292 82.093C56.6787 81.8595 57.0897 81.7349 57.5101 81.7349C57.7892 81.7348 58.0655 81.7897 58.3234 81.8965C58.5813 82.0032 58.8157 82.1597 59.013 82.357C59.2104 82.5543 59.3671 82.7885 59.4739 83.0463C59.5807 83.3041 59.6357 83.5803 59.6357 83.8594V83.8594Z" fill="#B7FFFF"/>
<path fill-rule="evenodd" clip-rule="evenodd" d="M4.78894 120.943C4.78898 121.364 4.6644 121.774 4.4309 122.124C4.19741 122.473 3.86552 122.746 3.47719 122.906C3.08885 123.067 2.66149 123.109 2.24921 123.028C1.83692 122.946 1.45823 122.743 1.16097 122.446C0.863704 122.149 0.661265 121.77 0.579214 121.358C0.497164 120.946 0.539202 120.519 0.700021 120.131C0.86084 119.742 1.13317 119.411 1.48266 119.177C1.83214 118.944 2.24308 118.819 2.66343 118.819C2.94253 118.819 3.2189 118.874 3.47677 118.98C3.73464 119.087 3.96893 119.244 4.16631 119.441C4.36369 119.638 4.52028 119.872 4.62712 120.13C4.73395 120.388 4.78891 120.664 4.78894 120.943V120.943Z" fill="#90FFFF"/>
<path fill-rule="evenodd" clip-rule="evenodd" d="M537.716 110.768C537.716 111.188 537.592 111.599 537.358 111.948C537.125 112.298 536.793 112.57 536.404 112.731C536.016 112.892 535.588 112.934 535.176 112.852C534.764 112.77 534.385 112.567 534.088 112.27C533.79 111.973 533.588 111.594 533.506 111.182C533.424 110.77 533.466 110.343 533.627 109.955C533.788 109.566 534.06 109.234 534.41 109.001C534.76 108.768 535.171 108.643 535.591 108.643C536.155 108.643 536.695 108.867 537.094 109.265C537.492 109.664 537.716 110.204 537.716 110.768V110.768Z" fill="#90FFFF"/>
</svg>
